# xmcd CD database file
#
# Track frame offsets:
#	150
#	20018
#	39064
#	59529
#	84165
#	101851
#	110612
#	127273
#	147882
#	171156
#	190367
#	208303
#	226760
#	246974
#
# Disc length: 3558 seconds
#
# Revision: 0
# Processed by: cddbd v1.5.2PL0 Copyright (c) Steve Scherf et al.
# Submitted via: CDex 1.51
#
DISCID=c80de40e
DTITLE=Christian Morin Art Quartet - Blue Indigo
DYEAR=2013
DGENRE=Jazz
TTITLE0=Let's Fall In Love
TTITLE1=Jive At Five
TTITLE2=Honey Sucklerose
TTITLE3=Mood Indigo
TTITLE4=Pennies From Heaven
TTITLE5=Undecided
TTITLE6=Moonglow
TTITLE7=C' Jam Blues
TTITLE8=Willow Weep For Me
TTITLE9=All Of Me
TTITLE10=A Smooth One
TTITLE11=Topsy
TTITLE12=I Can't Give You Anything But Love Baby
TTITLE13=When I Fall In Love
EXTD=YEAR: 2013
EXTT0=
EXTT1=
EXTT2=
EXTT3=
EXTT4=
EXTT5=
EXTT6=
EXTT7=
EXTT8=
EXTT9=
EXTT10=
EXTT11=
EXTT12=
EXTT13=
PLAYORDER=
